# xmcd CD database file
#
# Track frame offsets:
#	150
#	22717
#	50527
#	73070
#	99322
#	131840
#	158650
#	184152
#	219190
#
# Disc length: 3480 seconds
#
# Revision: 0
# Processed by: cddbd v1.5.1PL0 Copyright (c) Steve Scherf et al.
# Submitted via: CDex 1.51
#
DISCID=710d9609
DTITLE=Brian Bromberg - ACOUSTIC PROJECT
DYEAR=2004
DGENRE=Jazz
TTITLE0=Dear john
TTITLE1=Echoes
TTITLE2=One For The Woofer
TTITLE3=Waltz for Daphne
TTITLE4=Yes or No
TTITLE5=If I Should Lose You
TTITLE6=The Gnocchi(Ne-o-ki)Man
TTITLE7=From Dust To Dessert
TTITLE8=Buddha Belly(For My Dad,Howard)
EXTD=YEAR: 2004
EXTT0=
EXTT1=
EXTT2=
EXTT3=
EXTT4=
EXTT5=
EXTT6=
EXTT7=
EXTT8=
PLAYORDER=
